<svg xmlns="http://www.w3.org/2000/svg" width="14" height="13.21" viewBox="0 0 14 13.21">
  <path id="profile_copy_2" data-name="profile copy 2" d="M13.505,13.21H.494A.487.487,0,0,1,0,12.721,4.685,4.685,0,0,1,4.7,8.063H9.3A4.685,4.685,0,0,1,14,12.721.487.487,0,0,1,13.505,13.21ZM4.7,9.042a3.71,3.71,0,0,0-3.677,3.189H12.977A3.709,3.709,0,0,0,9.3,9.042ZM6.977,7.413A3.734,3.734,0,0,1,3.23,3.7a3.747,3.747,0,0,1,7.494,0A3.734,3.734,0,0,1,6.977,7.413Zm0-6.445A2.733,2.733,0,1,0,9.735,3.7,2.749,2.749,0,0,0,6.977.968Z" fill="#fff"/>
</svg>
