<svg xmlns="http://www.w3.org/2000/svg" width="16" height="16" viewBox="0 0 16 16">
  <path id="shield" d="M8.028,16H7.972a.654.654,0,0,1-.154-.025l-.012,0a11.813,11.813,0,0,1-5.821-4.423A16.07,16.07,0,0,1,.041,8.173.555.555,0,0,1,0,7.965V4.315a.561.561,0,0,1,.554-.567c.034,0,3.508-.1,7-3.582A.557.557,0,0,1,7.959,0h.055a.557.557,0,0,1,.4.166c3.52,3.485,7,3.582,7.03,3.582A.58.58,0,0,1,16,4.315v3.65a.573.573,0,0,1-.041.208,16.07,16.07,0,0,1-1.943,3.376,11.813,11.813,0,0,1-5.821,4.423l-.01,0A.679.679,0,0,1,8.028,16ZM8,1.314A12.8,12.8,0,0,1,1.123,4.827V7.841C1.363,8.4,3.6,13.388,8,14.852c4.266-1.418,6.477-6.077,6.877-7V4.827A12.809,12.809,0,0,1,8,1.314Z" fill="#9294a3"/>
</svg>
