<svg xmlns="http://www.w3.org/2000/svg" width="12.29" height="16" viewBox="0 0 12.29 16">
  <path id="padnote_copy_2" data-name="padnote copy 2" d="M11.786,16H.5a.508.508,0,0,1-.5-.521V1.765a.507.507,0,0,1,.5-.52H2.734V.52a.507.507,0,0,1,.5-.52H9.285a.507.507,0,0,1,.5.52v.725h2a.507.507,0,0,1,.5.52V15.479A.508.508,0,0,1,11.786,16ZM1.01,2.286V14.959H11.28V2.286H9.79V3.2a.507.507,0,0,1-.5.52H3.239a.507.507,0,0,1-.5-.52V2.286ZM3.744,1.041V2.679H8.78V1.041Zm2.512,11.53H2.623a.521.521,0,0,1,0-1.041H6.269a.521.521,0,0,1-.013,1.041ZM9.9,10.057H2.623a.521.521,0,0,1,0-1.041H9.9a.521.521,0,0,1,0,1.041Zm0-2.527H2.623a.508.508,0,0,1-.5-.521.513.513,0,0,1,.5-.52H9.9a.521.521,0,0,1,0,1.041Z" fill="#fff" opacity="0.5"/>
</svg>
