<svg xmlns="http://www.w3.org/2000/svg" width="13" height="15" viewBox="0 0 13 15">
  <path id="file_copy_2" data-name="file copy 2" d="M12.466,15H.534A.539.539,0,0,1,0,14.458V3.979a.385.385,0,0,0,.012-.056.363.363,0,0,1,.014-.06.079.079,0,0,1,.013-.051.522.522,0,0,1,.092-.142L3.113.181a.353.353,0,0,1,.1-.089A.084.084,0,0,1,3.237.077.065.065,0,0,0,3.256.065l.05-.018.055-.02A.043.043,0,0,1,3.387.013.456.456,0,0,1,3.517,0h8.949A.526.526,0,0,1,13,.53V14.47A.526.526,0,0,1,12.466,15ZM1.068,4.548v9.393H11.931V1.059H4.051V4.019a.526.526,0,0,1-.534.529ZM2.983,1.976,1.68,3.5h1.3Zm7.36,7.339H2.658a.53.53,0,1,1,0-1.059h7.685a.533.533,0,0,1,.534.53A.526.526,0,0,1,10.343,9.315Zm0-2.558H2.658a.53.53,0,1,1,0-1.059h7.685a.53.53,0,1,1,0,1.059Z" fill="#9294a3"/>
</svg>
