<svg xmlns="http://www.w3.org/2000/svg" xmlns:xlink="http://www.w3.org/1999/xlink" width="100" height="25" viewBox="0 0 85.496 20.461">
  <defs>
    <clipPath id="clip-path">
      <path id="SVGID_1_" d="M85.5,4.121H83.3V0h2.2V4.12Zm-7.664-.036h-2.2V0h2.2V4.084Zm-4.21,0H71.139V0h2.483V4.084Zm-4.858,0H66.281V0h2.482V4.084Zm-9.14,0H57.141V0h2.483V4.084Zm-14.861,0H42.28V0h2.483V4.084Zm-6.405,0h-2.2V0h2.2V4.084Zm-5.289,0h-2.2V0h2.2V4.084Zm-7.592,0H22.993V0h2.483V4.084Zm-13.386,0H9.9V0h2.2V4.084Zm-5.29,0H4.606V0H6.8V4.084Zm-4.317,0H0V0H2.483V4.084Z" transform="translate(0.288 0.182)" fill="none"/>
    </clipPath>
    <linearGradient id="linear-gradient" y1="0.495" x2="1" y2="0.495" gradientUnits="objectBoundingBox">
      <stop offset="0" stop-color="#81356f"/>
      <stop offset="1" stop-color="#4c5ca6"/>
    </linearGradient>
  </defs>
  <g id="Group_Copy_4" data-name="Group Copy 4" transform="translate(-0.288 -0.255)">
    <rect id="Rectangle-path" width="2.483" height="11.416" transform="translate(0.288 0.474)" fill="#fff"/>
    <path id="Shape" d="M0,0H2.843L5.29,8.206V0H7.485V11.416H4.606L2.195,3.21v8.206H0Z" transform="translate(4.894 0.474)" fill="#fff"/>
    <path id="Shape-2" data-name="Shape" d="M0,0H2.519l1.4,8.9L5.326,0H7.736L5.362,11.416H2.375Z" transform="translate(13.962 0.474)" fill="#fff"/>
    <path id="Shape-3" data-name="Shape" d="M0,0H6.189V1.824H2.447V4.668H5.865V6.492H2.447v3.1H6.189v1.824H0Z" transform="translate(23.281 0.474)" fill="#fff"/>
    <path id="Shape-4" data-name="Shape" d="M0,0H2.879L5.29,8.206V0H7.485V11.416H4.642L2.195,3.21v8.206H0Z" transform="translate(31.162 0.474)" fill="#fff"/>
    <path id="Shape-5" data-name="Shape" d="M2.3,1.824H0V0H7.089V1.824h-2.3v9.592H2.3Z" transform="translate(40.265 0.474)" fill="#fff"/>
    <path id="Shape-6" data-name="Shape" d="M3.922,11.817C1.1,11.817,0,10.385,0,6.711V5.106A6.655,6.655,0,0,1,.828,1.254,3.473,3.473,0,0,1,3.922,0,3.473,3.473,0,0,1,7.017,1.254a6.655,6.655,0,0,1,.828,3.852V6.711a6.655,6.655,0,0,1-.828,3.852A3.473,3.473,0,0,1,3.922,11.817Zm0-10.067c-1.235,0-1.3,1.371-1.3,3.793v.729c0,2.446,0,3.794,1.3,3.794s1.3-1.428,1.3-3.794V5.544C5.217,3.1,5.217,1.751,3.922,1.751Z" transform="translate(48.002 0.255)" fill="#fff"/>
    <path id="Shape-7" data-name="Shape" d="M2.483,11.417H0V0H3.2c3.148,0,4.21.791,4.21,3.136A2.645,2.645,0,0,1,5.721,5.945l1.835,5.469H5L3.526,6.492H2.483v4.924Zm0-9.739V5H3.2c1.361,0,1.655-.292,1.655-1.642S4.548,1.678,3.2,1.678Z" transform="translate(57.429 0.474)" fill="#fff"/>
    <path id="Shape-8" data-name="Shape" d="M0,6.93V0H2.483V6.893c0,2.006-.036,2.954,1.187,2.954S4.858,8.9,4.858,6.893V0H7.341V6.784c0,3.757-.54,4.814-3.67,4.814S0,10.54,0,6.93" transform="translate(66.569 0.474)" fill="#fff"/>
    <path id="Shape-9" data-name="Shape" d="M0,0H3.454L4.93,8.571,6.441,0H9.859V11.416H7.664V2.444H7.628l-.108.912L5.9,11.416H3.958L2.375,3.355l-.108-.912H2.231v8.972H0Z" transform="translate(75.925 0.474)" fill="#fff"/>
    <g id="Clipped" transform="translate(0 16.412)">
      <path id="SVGID_1_2" data-name="SVGID_1_" d="M85.5,4.121H83.3V0h2.2V4.12Zm-7.664-.036h-2.2V0h2.2V4.084Zm-4.21,0H71.139V0h2.483V4.084Zm-4.858,0H66.281V0h2.482V4.084Zm-9.14,0H57.141V0h2.483V4.084Zm-14.861,0H42.28V0h2.483V4.084Zm-6.405,0h-2.2V0h2.2V4.084Zm-5.289,0h-2.2V0h2.2V4.084Zm-7.592,0H22.993V0h2.483V4.084Zm-13.386,0H9.9V0h2.2V4.084Zm-5.29,0H4.606V0H6.8V4.084Zm-4.317,0H0V0H2.483V4.084Z" transform="translate(0.288 0.182)" fill="none"/>
      <g id="Clipped-2" data-name="Clipped" clip-path="url(#clip-path)">
        <rect id="Rectangle-path-2" data-name="Rectangle-path" width="85.496" height="4.121" transform="translate(0.288 0.182)" fill="url(#linear-gradient)"/>
      </g>
    </g>
  </g>
</svg>
