<svg xmlns="http://www.w3.org/2000/svg" width="14" height="14" viewBox="0 0 14 14">
  <path id="presentation_copy_2" data-name="presentation copy 2" d="M12.214,14a.5.5,0,0,1-.41-.229L9.233,9.755H4.743l-2.57,4a.488.488,0,0,1-.41.229.522.522,0,0,1-.265-.072.475.475,0,0,1-.212-.3.5.5,0,0,1,.067-.371L3.585,9.768H1.774a.49.49,0,0,1-.5-.495V3.533H.5a.49.49,0,0,1-.5-.5V.494A.489.489,0,0,1,.5,0h13.01A.489.489,0,0,1,14,.494V3.038a.49.49,0,0,1-.495.5h-.785V9.273a.49.49,0,0,1-.495.495H10.4l2.221,3.485a.468.468,0,0,1,.074.362.491.491,0,0,1-.219.313A.514.514,0,0,1,12.214,14ZM9.48,8.763a.52.52,0,0,1,.163.027h2.1V3.533H2.269V8.79H9.317A.521.521,0,0,1,9.48,8.763ZM.977.989V2.544H13V.989ZM3.73,7.826a.584.584,0,0,1-.363-.133.494.494,0,0,1,0-.7L4.357,6a.465.465,0,0,1,.471-.132l1.593.41L7.869,4.57a.518.518,0,0,1,.388-.177.464.464,0,0,1,.312.117.515.515,0,0,1,.175.34.47.47,0,0,1-.114.359L6.988,7.163a.523.523,0,0,1-.383.173.482.482,0,0,1-.124-.016L4.864,6.9l-.784.784A.509.509,0,0,1,3.73,7.826Z" fill="#9294a3"/>
</svg>
