<svg xmlns="http://www.w3.org/2000/svg" width="15" height="15" viewBox="0 0 15 15">
  <path id="settings_copy" data-name="settings copy" d="M8.545,15H6.48a.524.524,0,0,1-.529-.53V13.5a6.218,6.218,0,0,1-1.575-.646l-.684.685a.529.529,0,0,1-.749,0L1.484,12.078a.533.533,0,0,1,0-.751l.671-.672A5.846,5.846,0,0,1,1.5,9.077H.529A.524.524,0,0,1,0,8.547V6.478a.524.524,0,0,1,.529-.53h.955a5.782,5.782,0,0,1,.659-1.59l-.671-.672a.533.533,0,0,1,0-.751L2.93,1.462a.529.529,0,0,1,.749,0l.684.685A6.217,6.217,0,0,1,5.938,1.5V.53A.524.524,0,0,1,6.467,0H8.533a.524.524,0,0,1,.529.53V1.5a6.759,6.759,0,0,1,1.575.659l.684-.685a.529.529,0,0,1,.749,0l1.471,1.448a.532.532,0,0,1,0,.75l-.7.7a6.112,6.112,0,0,1,.646,1.565h.981a.524.524,0,0,1,.529.53V8.535a.524.524,0,0,1-.529.53H13.49a6.109,6.109,0,0,1-.646,1.564l.7.7a.533.533,0,0,1,0,.751l-1.459,1.461a.529.529,0,0,1-.749,0l-.7-.7a6.1,6.1,0,0,1-1.562.647v.983A.524.524,0,0,1,8.545,15ZM4.288,11.624a.519.519,0,0,1,.3.091,4.949,4.949,0,0,0,1.975.814A.518.518,0,0,1,7,13.047v.867H8v-.867a.535.535,0,0,1,.426-.517,4.949,4.949,0,0,0,1.962-.814.518.518,0,0,1,.3-.091.528.528,0,0,1,.376.156l.619.621.71-.711-.619-.621a.529.529,0,0,1-.065-.672,4.992,4.992,0,0,0,.814-1.966A.513.513,0,0,1,13.038,8h.877V7h-.877a.547.547,0,0,1-.517-.44,5.38,5.38,0,0,0-.814-1.965.53.53,0,0,1,.065-.673l.619-.62-.71-.711-.619.62a.528.528,0,0,1-.376.156.518.518,0,0,1-.3-.091,5.159,5.159,0,0,0-1.962-.814A.513.513,0,0,1,8,1.94V1.074H7V1.94a.536.536,0,0,1-.439.518,4.992,4.992,0,0,0-1.975.814.519.519,0,0,1-.3.091.528.528,0,0,1-.376-.156L3.3,2.6l-.71.711.594.608a.53.53,0,0,1,.064.673A5.145,5.145,0,0,0,2.44,6.569a.561.561,0,0,1-.517.453H1.071V8.03h.852a.528.528,0,0,1,.517.427,5.239,5.239,0,0,0,.826,1.978.529.529,0,0,1-.065.672l-.607.608.71.672.607-.608A.528.528,0,0,1,4.288,11.624Zm3.2-.4a3.633,3.633,0,1,1,3.627-3.633A3.634,3.634,0,0,1,7.487,11.224Zm0-6.206a2.573,2.573,0,1,0,2.569,2.573A2.574,2.574,0,0,0,7.487,5.018Z" fill="#9294a3"/>
</svg>
